<?xml version="1.0" encoding="UTF-8" standalone="no"?>
<!-- Uploaded to: SVG Repo, www.svgrepo.com, Transformed by: SVG Repo Mixer Tools -->

<svg
   fill="#000000"
   height="800px"
   width="800px"
   version="1.1"
   id="Capa_1"
   viewBox="0 0 488.325 488.325"
   xml:space="preserve"
   sodipodi:docname="arrow.svg"
   inkscape:version="1.2.1 (9c6d41e410, 2022-07-14)"
   xmlns:inkscape="http://www.inkscape.org/namespaces/inkscape"
   xmlns:sodipodi="http://sodipodi.sourceforge.net/DTD/sodipodi-0.dtd"
   xmlns="http://www.w3.org/2000/svg"
   xmlns:svg="http://www.w3.org/2000/svg"><defs
   id="defs138" /><sodipodi:namedview
   id="namedview136"
   pagecolor="#ffffff"
   bordercolor="#000000"
   borderopacity="0.25"
   inkscape:showpageshadow="2"
   inkscape:pageopacity="0.0"
   inkscape:pagecheckerboard="0"
   inkscape:deskcolor="#d1d1d1"
   showgrid="false"
   inkscape:zoom="0.323125"
   inkscape:cx="317.2147"
   inkscape:cy="612.76596"
   inkscape:window-width="1366"
   inkscape:window-height="697"
   inkscape:window-x="-8"
   inkscape:window-y="-8"
   inkscape:window-maximized="1"
   inkscape:current-layer="Capa_1" />
<g
   id="g133"
   style="fill:#4d4d4d"
   transform="matrix(1.4772334,0,0,1.5136117,54.869091,-109.45703)">
	<path
   d="M 108.89233,91.3457 V 326.09702 L 39.303738,260.31426 c -8.159725,-7.71347 -21.246076,-7.71347 -29.4058012,0 -8.1597249,7.71346 -8.1597249,20.08411 0,27.79758 L 114.89666,387.51367 c 4.00288,3.78396 9.39138,5.82148 14.62592,5.82148 h 0.92374 0.92374 c 5.3885,0 10.62304,-1.89198 14.62593,-5.82148 l 104.99872,-99.25629 c 8.15972,-7.71347 8.15972,-20.08412 0,-27.79759 -8.15972,-7.71346 -21.24608,-7.71346 -29.4058,0 l -71.59004,67.67475 V 91.3457 c -0.62701,-23.071979 -39.81466,-24.9048 -41.10654,0 z"
   id="path131"
   sodipodi:nodetypes="ccssccscscsssccc"
   style="fill:#4d4d4d;stroke-width:1.49688" />
</g>
</svg>
